<?xml version="1.0" encoding="utf-8"?>
<svg width="745.57" height="745.57" viewBox="0 0 745.57 745.57" fill="none" xmlns="http://www.w3.org/2000/svg">
  <defs>
    <filter color-interpolation-filters="sRGB" x="-573" y="-301" width="575" height="303" id="filter_1">
      <feFlood flood-opacity="0" result="BackgroundImageFix_1" />
      <feColorMatrix type="matrix" values="0 0 0 0 0 0 0 0 0 0 0 0 0 0 0 0 0 0 1 0" in="SourceAlpha" />
      <feOffset dx="8" dy="8" />
      <feGaussianBlur stdDeviation="4" />
      <feColorMatrix type="matrix" values="0 0 0 0 0 0 0 0 0 0 0 0 0 0 0 0 0 0 1 0" />
      <feBlend mode="normal" in2="BackgroundImageFix_1" result="Shadow_2" />
      <feBlend mode="normal" in="SourceGraphic" in2="Shadow_2" result="Shape_3" />
    </filter>
    <radialGradient id="gradient_2" gradientUnits="userSpaceOnUse" cx="0" cy="0" r="1" gradientTransform="matrix(0 371.679 -371.679 0 371.679 371.679)">
      <stop offset="0.219" stop-color="#9C3F3F" />
      <stop offset="0.927" stop-color="#DAA520" />
    </radialGradient>
  </defs>
  <g>
    <rect width="745.57" height="745.57" />
    <g id="layer1" transform="translate(1.113 1.092)">
      <g id="g2214" transform="scale(1 1)">
        <path id="path3139" d="M240.693 120.347C240.693 186.812 186.812 240.693 120.347 240.693C53.881 240.693 0 186.812 0 120.347C1.52588e-05 53.881 53.881 0 120.347 0C186.812 0 240.693 53.881 240.693 120.347C240.693 120.347 240.693 120.347 240.693 120.347Z" fill="none" stroke-width="3" stroke="#DAA520" stroke-linecap="round" stroke-linejoin="round" transform="translate(251.332 251.346)" />
        <path id="path4171" d="M240.693 120.347C240.693 186.812 186.812 240.693 120.347 240.693C53.881 240.693 0 186.812 0 120.347C0 53.881 53.881 0 120.347 0C186.812 0 240.693 53.881 240.693 120.347C240.693 120.347 240.693 120.347 240.693 120.347Z" fill="none" stroke-width="3" stroke="#DAA520" stroke-linecap="round" stroke-linejoin="round" transform="translate(331.535 341.13)" />
        <path id="path4181" d="M240.693 120.347C240.693 186.812 186.812 240.693 120.347 240.693C53.881 240.693 0 186.812 0 120.347C1.52588e-05 53.881 53.881 0 120.347 0C186.812 0 240.693 53.881 240.693 120.347C240.693 120.347 240.693 120.347 240.693 120.347Z" fill="none" stroke-width="3" stroke="#DAA520" stroke-linecap="round" stroke-linejoin="round" transform="translate(213.724 365.756)" />
        <path id="path4191" d="M240.693 120.347C240.693 186.812 186.812 240.693 120.347 240.693C53.881 240.693 0 186.812 0 120.347C1.52588e-05 53.881 53.881 0 120.347 0C186.812 0 240.693 53.881 240.693 120.347C240.693 120.347 240.693 120.347 240.693 120.347Z" fill="none" stroke-width="3" stroke="#DAA520" stroke-linecap="round" stroke-linejoin="round" transform="translate(133.597 276.029)" />
        <path id="path4201" d="M240.693 120.347C240.693 186.812 186.812 240.693 120.347 240.693C53.881 240.693 0 186.812 0 120.347C1.52588e-05 53.881 53.881 0 120.347 0C186.812 0 240.693 53.881 240.693 120.347C240.693 120.347 240.693 120.347 240.693 120.347Z" fill="none" stroke-width="3" stroke="#DAA520" stroke-linecap="round" stroke-linejoin="round" transform="translate(171.209 161.601)" />
        <path id="path4211" d="M240.693 120.347C240.693 186.812 186.812 240.693 120.347 240.693C53.881 240.693 0 186.812 0 120.347C0 53.881 53.881 0 120.347 0C186.812 0 240.693 53.881 240.693 120.347C240.693 120.347 240.693 120.347 240.693 120.347Z" fill="none" stroke-width="3" stroke="#DAA520" stroke-linecap="round" stroke-linejoin="round" transform="translate(289.059 137.056)" />
        <path id="path4221" d="M240.693 120.347C240.693 186.812 186.812 240.693 120.347 240.693C53.881 240.693 0 186.812 0 120.347C0 53.881 53.881 0 120.347 0C186.812 0 240.693 53.881 240.693 120.347C240.693 120.347 240.693 120.347 240.693 120.347Z" fill="none" stroke-width="3" stroke="#DAA520" stroke-linecap="round" stroke-linejoin="round" transform="translate(369.302 226.802)" />
        <path id="path4231" d="M240.693 120.347C240.693 186.812 186.812 240.693 120.347 240.693C53.881 240.693 0 186.812 0 120.347C0 53.881 53.881 0 120.347 0C186.812 0 240.693 53.881 240.693 120.347C240.693 120.347 240.693 120.347 240.693 120.347Z" fill="none" stroke-width="3" stroke="#DAA520" stroke-linecap="round" stroke-linejoin="round" transform="translate(406.932 112.55)" />
        <path id="path4241" d="M240.693 120.347C240.693 186.812 186.812 240.693 120.347 240.693C53.881 240.693 0 186.812 0 120.347C1.52588e-05 53.881 53.881 0 120.347 0C186.812 0 240.693 53.881 240.693 120.347C240.693 120.347 240.693 120.347 240.693 120.347Z" fill="none" stroke-width="3" stroke="#DAA520" stroke-linecap="round" stroke-linejoin="round" transform="translate(208.894 47.311)" />
        <path id="path4251" d="M240.693 120.347C240.693 186.812 186.812 240.693 120.347 240.693C53.881 240.693 0 186.812 0 120.347C1.52588e-05 53.881 53.881 0 120.347 0C186.812 0 240.693 53.881 240.693 120.347C240.693 120.347 240.693 120.347 240.693 120.347Z" fill="none" stroke-width="3" stroke="#DAA520" stroke-linecap="round" stroke-linejoin="round" transform="translate(53.46 186.28)" />
        <path id="path4261" d="M240.693 120.347C240.693 186.812 186.812 240.693 120.347 240.693C53.881 240.693 0 186.812 0 120.347C1.52588e-05 53.881 53.881 0 120.347 0C186.812 0 240.693 53.881 240.693 120.347C240.693 120.347 240.693 120.347 240.693 120.347Z" fill="none" stroke-width="3" stroke="#DAA520" stroke-linecap="round" stroke-linejoin="round" transform="translate(95.949 390.403)" />
        <path id="path4271" d="M240.693 120.347C240.693 186.812 186.812 240.693 120.347 240.693C53.881 240.693 0 186.812 0 120.347C0 53.881 53.881 0 120.347 0C186.812 0 240.693 53.881 240.693 120.347C240.693 120.347 240.693 120.347 240.693 120.347Z" fill="none" stroke-width="3" stroke="#DAA520" stroke-linecap="round" stroke-linejoin="round" transform="translate(293.928 455.42)" />
        <path id="path4281" d="M240.693 120.347C240.693 186.812 186.812 240.693 120.347 240.693C53.881 240.693 0 186.812 0 120.347C0 53.881 53.881 0 120.347 0C186.812 0 240.693 53.881 240.693 120.347C240.693 120.347 240.693 120.347 240.693 120.347Z" fill="none" stroke-width="3" stroke="#DAA520" stroke-linecap="round" stroke-linejoin="round" transform="translate(449.398 316.616)" />
        <path id="path4291" d="M240.693 120.347C240.693 186.812 186.812 240.693 120.347 240.693C53.881 240.693 0 186.812 0 120.347C0 53.881 53.881 0 120.347 0C186.812 0 240.693 53.881 240.693 120.347C240.693 120.347 240.693 120.347 240.693 120.347Z" fill="none" stroke-width="3" stroke="#DAA520" stroke-linecap="round" stroke-linejoin="round" transform="translate(487.192 202.375)" />
        <path id="path4301" d="M240.693 120.347C240.693 186.812 186.812 240.693 120.347 240.693C53.881 240.693 0 186.812 0 120.347C0 53.881 53.881 0 120.347 0C186.812 0 240.693 53.881 240.693 120.347C240.693 120.347 240.693 120.347 240.693 120.347Z" fill="none" stroke-width="3" stroke="#DAA520" stroke-linecap="round" stroke-linejoin="round" transform="translate(411.764 430.853)" />
        <path id="path4311" d="M240.693 120.347C240.693 186.812 186.812 240.693 120.347 240.693C53.881 240.693 0 186.812 0 120.347C1.52588e-05 53.881 53.881 0 120.347 0C186.812 0 240.693 53.881 240.693 120.347C240.693 120.347 240.693 120.347 240.693 120.347Z" fill="none" stroke-width="3" stroke="#DAA520" stroke-linecap="round" stroke-linejoin="round" transform="translate(176.157 480.143)" />
        <path id="path4321" d="M240.693 120.347C240.693 186.812 186.812 240.693 120.347 240.693C53.881 240.693 0 186.812 0 120.347C1.33514e-05 53.881 53.881 0 120.347 0C186.812 0 240.693 53.881 240.693 120.347C240.693 120.347 240.693 120.347 240.693 120.347Z" fill="none" stroke-width="3" stroke="#DAA520" stroke-linecap="round" stroke-linejoin="round" transform="translate(15.866 300.601)" />
        <path id="path4331" d="M240.693 120.347C240.693 186.812 186.812 240.693 120.347 240.693C53.881 240.693 0 186.812 0 120.347C1.52588e-05 53.881 53.881 0 120.347 0C186.812 0 240.693 53.881 240.693 120.347C240.693 120.347 240.693 120.347 240.693 120.347Z" fill="none" stroke-width="3" stroke="#DAA520" stroke-linecap="round" stroke-linejoin="round" transform="translate(91.01 71.835)" />
        <path id="path4341" d="M240.693 120.347C240.693 186.812 186.812 240.693 120.347 240.693C53.881 240.693 0 186.812 0 120.347C0 53.881 53.881 0 120.347 0C186.812 0 240.693 53.881 240.693 120.347C240.693 120.347 240.693 120.347 240.693 120.347Z" fill="none" stroke-width="3" stroke="#DAA520" stroke-linecap="round" stroke-linejoin="round" transform="translate(326.791 22.748)" />
        <path id="path4351" d="M2.4772 144.548C-10.8375 79.6248 30.845 16.155 95.714 2.57684C160.583 -11.0013 224.222 30.4231 238.063 95.2365" fill="none" stroke-width="3" stroke="#DAA520" stroke-linecap="round" stroke-linejoin="round" transform="translate(374.247 545.482)" />
        <path id="path4361" d="M2.47702 144.548C-10.8322 79.649 30.8138 16.1979 95.6506 2.59015C160.487 -11.0176 224.13 30.3358 238.036 95.1093" fill="none" stroke-width="3" stroke="#DAA520" stroke-linecap="round" stroke-linejoin="round" transform="translate(256.518 570.241)" />
        <path id="path4371" d="M0 30.6454C49.5413 -13.6642 125.622 -9.4231 169.932 40.1182C214.242 89.6595 210.001 165.741 160.459 210.05" fill="none" stroke-width="3" stroke="#DAA520" stroke-linecap="round" stroke-linejoin="round" transform="translate(98.574 504.668)" />
        <path id="path4391" d="M0 30.5996C49.567 -13.6819 125.646 -9.39706 169.928 40.17C214.209 89.7369 209.924 165.816 160.357 210.098" fill="none" stroke-width="3" stroke="#DAA520" stroke-linecap="round" stroke-linejoin="round" transform="translate(18.451 414.867)" />
        <path id="path4401" d="M75.2634 0C138.063 21.0282 172.072 88.8452 151.363 151.751C130.654 214.657 63.0103 249.01 0 228.62" fill="none" stroke-width="3" stroke="#DAA520" stroke-linecap="round" stroke-linejoin="round" transform="translate(18.42 216.979)" />
        <path id="path4411" d="M75.1265 0C137.897 21.0214 171.906 88.7915 151.244 151.681C130.581 214.571 63.0069 248.966 0 228.664" fill="none" stroke-width="3" stroke="#DAA520" stroke-linecap="round" stroke-linejoin="round" transform="translate(56.098 102.592)" />
        <path id="path4421" d="M235.625 0C248.829 64.9088 207.098 128.285 142.253 141.803C77.4093 155.32 13.8315 113.897 0 49.1191" fill="none" stroke-width="3" stroke="#DAA520" stroke-linecap="round" stroke-linejoin="round" transform="translate(131.327 53.372)" />
        <path id="path4431" d="M235.612 0C248.872 64.9222 207.157 128.35 142.293 141.891C77.4286 155.432 13.8211 113.991 0 49.1862" fill="none" stroke-width="3" stroke="#DAA520" stroke-linecap="round" stroke-linejoin="round" transform="translate(249.18 28.853)" />
        <path id="path4441" d="M197.991 65.2389C165.92 93.8843 121.001 103.241 80.1599 89.7835C39.3184 76.3261 8.76062 42.0997 0 0" fill="none" stroke-width="3" stroke="#DAA520" stroke-linecap="round" stroke-linejoin="round" transform="translate(366.974 53.355)" />
        <path id="path4451" d="M200.212 179.458C150.622 223.449 74.7946 219.055 30.6183 169.629C-13.5579 120.204 -9.44617 44.3601 39.8145 0" fill="none" stroke-width="3" stroke="#DAA520" stroke-linecap="round" stroke-linejoin="round" transform="translate(444.885 28.872)" />
        <path id="path4461" d="M200.555 179.445C151.003 223.742 74.9229 219.482 30.6255 169.93C-13.6718 120.378 -9.4118 44.2973 40.1404 0" fill="none" stroke-width="3" stroke="#DAA520" stroke-linecap="round" stroke-linejoin="round" transform="translate(524.741 118.616)" />
        <path id="path4471" d="M82.0055 234.443C19.2591 213.335 -14.6562 145.51 6.09991 82.6465C26.856 19.7826 94.4888 -14.5131 157.468 5.88971" fill="none" stroke-width="3" stroke="#DAA520" stroke-linecap="round" stroke-linejoin="round" transform="translate(567.814 292.458)" />
        <path id="path4481" d="M82.1568 234.494C19.3279 213.45 -14.6716 145.578 6.09637 82.6578C26.8644 19.7372 94.5865 -14.5599 157.598 5.93185" fill="none" stroke-width="3" stroke="#DAA520" stroke-linecap="round" stroke-linejoin="round" transform="translate(529.904 406.538)" />
        <path id="path2333" d="M155.312 0C164.073 42.0623 149.745 85.6051 117.719 114.247C85.6931 142.888 40.8268 152.283 0 138.898" fill="none" stroke-width="3" stroke="#DAA520" stroke-linecap="round" stroke-linejoin="round" transform="translate(93.79 77.936)" />
        <path id="path5254" d="M37.6696 0C46.4439 42.1032 32.0833 85.6887 0 114.33" fill="none" stroke-width="3" stroke="#DAA520" stroke-linecap="round" stroke-linejoin="round" transform="translate(93.675 102.548)" />
        <path id="path5264" d="M117.7 0C85.6323 28.5543 40.7805 37.8605 0 24.4214" fill="none" stroke-width="3" stroke="#DAA520" stroke-linecap="round" stroke-linejoin="round" transform="translate(131.335 78.046)" />
        <path id="path5274" d="M117.682 0C85.6377 28.5819 40.7924 37.9253 0 24.5189" fill="none" stroke-width="3" stroke="#DAA520" stroke-linecap="round" stroke-linejoin="round" transform="translate(249.239 53.368)" />
        <path id="path5284" d="M118.01 0C85.8961 28.7033 40.8909 38.0557 0 24.5234" fill="none" stroke-width="3" stroke="#DAA520" stroke-linecap="round" stroke-linejoin="round" transform="translate(366.944 28.769)" />
        <path id="path5294" d="M80.0389 89.5229C39.3135 76.0755 8.82202 41.971 0 0" fill="none" stroke-width="3" stroke="#DAA520" stroke-linecap="round" stroke-linejoin="round" transform="translate(484.825 28.942)" />
        <path id="path5304" d="M79.9281 89.5317C39.2433 76.0499 8.79889 41.9476 0 0" fill="none" stroke-width="3" stroke="#DAA520" stroke-linecap="round" stroke-linejoin="round" transform="translate(565.014 118.598)" />
        <path id="path5314" d="M82.6921 203.977C41.8785 190.531 11.3309 156.343 2.5451 114.279C-6.24072 72.2155 8.06842 28.6587 40.0878 0" fill="none" stroke-width="3" stroke="#DAA520" stroke-linecap="round" stroke-linejoin="round" transform="translate(605.054 208.489)" />
        <path id="path5324" d="M80.07 89.5273C39.3314 76.0883 8.82629 41.9802 0 0" fill="none" stroke-width="3" stroke="#DAA520" stroke-linecap="round" stroke-linejoin="round" transform="translate(645.213 208.405)" />
        <path id="path5334" d="M2.47351 114.082C-6.17969 72.0382 8.2157 28.5686 40.2526 0" fill="none" stroke-width="3" stroke="#DAA520" stroke-linecap="round" stroke-linejoin="round" transform="translate(685.044 298.202)" />
        <path id="path5344" d="M2.4696 113.829C-6.15027 71.9136 8.13593 28.5736 39.9911 0" fill="none" stroke-width="3" stroke="#DAA520" stroke-linecap="round" stroke-linejoin="round" transform="translate(647.52 412.71)" />
        <path id="path5354" d="M2.47443 114.086C-6.18066 72.0414 8.21448 28.5696 40.2526 0" fill="none" stroke-width="3" stroke="#DAA520" stroke-linecap="round" stroke-linejoin="round" transform="translate(609.66 526.765)" />
        <path id="path5364" d="M2.4975 144.726C-6.20035 102.675 8.16608 59.1761 40.1973 30.5772C72.2284 1.97833 117.071 -7.38708 157.871 6.00092" fill="none" stroke-width="3" stroke="#DAA520" stroke-linecap="round" stroke-linejoin="round" transform="translate(491.947 520.631)" />
        <path id="path5374" d="M0 30.4439C32.0172 1.95306 76.7704 -7.36066 117.496 5.99152" fill="none" stroke-width="3" stroke="#DAA520" stroke-linecap="round" stroke-linejoin="round" transform="translate(494.579 634.966)" />
        <path id="path5384" d="M0 30.5483C32.0163 1.9834 76.8194 -7.37524 117.593 5.98511" fill="none" stroke-width="3" stroke="#DAA520" stroke-linecap="round" stroke-linejoin="round" transform="translate(376.773 659.495)" />
        <path id="path5394" d="M0 30.5955C32.0322 1.98254 76.8855 -7.39026 117.695 6.00122" fill="none" stroke-width="3" stroke="#DAA520" stroke-linecap="round" stroke-linejoin="round" transform="translate(258.934 684.122)" />
        <path id="path5404" d="M0 30.64C32.0317 1.99548 76.9063 -7.39648 117.737 5.99847C158.567 19.3934 189.157 53.5425 197.996 95.5951" fill="none" stroke-width="3" stroke="#DAA520" stroke-linecap="round" stroke-linejoin="round" transform="matrix(1 0 0 1 178.83 594.4)" />
        <path id="path5414" d="M0 0C40.8058 13.3975 71.3791 47.5259 80.2252 89.5539" fill="none" stroke-width="3" stroke="#DAA520" stroke-linecap="round" stroke-linejoin="round" transform="translate(178.826 625.146)" />
        <path id="path5424" d="M0 0C40.7734 13.4375 71.3012 47.5775 80.1143 89.5938" fill="none" stroke-width="3" stroke="#DAA520" stroke-linecap="round" stroke-linejoin="round" transform="translate(98.596 535.384)" />
        <path id="path5434" d="M0 0C40.7292 13.4647 71.2123 47.5912 80.0124 89.5761" fill="none" stroke-width="3" stroke="#DAA520" stroke-linecap="round" stroke-linejoin="round" transform="translate(18.455 445.733)" />
        <path id="path5444" d="M0 0C40.8418 13.4219 71.4222 47.6108 80.2243 89.6908C89.0264 131.771 74.7132 175.35 42.6753 204.017" fill="none" stroke-width="3" stroke="#DAA520" stroke-linecap="round" stroke-linejoin="round" transform="matrix(1 0 0 1 55.992 331.207)" />
        <path id="path5454" d="M37.5499 0C46.3313 42.0629 32.0195 85.6166 0 114.272" fill="none" stroke-width="3" stroke="#DAA520" stroke-linecap="round" stroke-linejoin="round" transform="translate(18.451 331.247)" />
        <path id="path5464" d="M37.572 0C46.4191 42.1266 32.0925 85.7707 0 114.459" fill="none" stroke-width="3" stroke="#DAA520" stroke-linecap="round" stroke-linejoin="round" transform="matrix(1 0 0 1 56.098 216.767)" />
        <path id="path6883" d="M722.08 361.04C722.08 560.437 560.437 722.08 361.04 722.08C161.643 722.08 0 560.437 0 361.04C4.1008e-05 161.643 161.643 0 361.04 0C560.437 0 722.08 161.643 722.08 361.04C722.08 361.04 722.08 361.04 722.08 361.04Z" fill="none" stroke-width="3" stroke="#DAA520" stroke-linecap="round" stroke-linejoin="round" transform="translate(10.638 10.661)" />
        <g fill="#D3D3D3" filter="url(#filter_1)" transform="translate(84.887 219.908)">
          <path d="M22.017 242.188L22.017 60.3693L131.037 60.3693L131.037 79.9006L44.0341 79.9006L44.0341 141.335L122.869 141.335L122.869 160.866L44.0341 160.866L44.0341 242.188L22.017 242.188ZM172.585 243.608Q166.016 243.608 161.31 238.903Q156.605 234.197 156.605 227.628Q156.605 221.058 161.31 216.353Q166.016 211.648 172.585 211.648Q179.155 211.648 183.86 216.353Q188.565 221.058 188.565 227.628Q188.565 234.197 183.86 238.903Q179.155 243.608 172.585 243.608ZM229.048 242.188L229.048 60.3693L251.065 60.3693L251.065 222.656L335.582 222.656L335.582 242.188L229.048 242.188ZM382.102 243.608Q375.533 243.608 370.827 238.903Q366.122 234.197 366.122 227.628Q366.122 221.058 370.827 216.353Q375.533 211.648 382.102 211.648Q388.672 211.648 393.377 216.353Q398.082 221.058 398.082 227.628Q398.082 234.197 393.377 238.903Q388.672 243.608 382.102 243.608ZM414.418 60.3693L439.631 60.3693L490.057 145.241L492.188 145.241L542.614 60.3693L567.827 60.3693L502.131 167.259L502.131 242.188L480.114 242.188L480.114 167.259L414.418 60.3693Z" />
        </g>
        <path id="path7854" d="M743.357 371.679C743.357 576.951 576.951 743.357 371.679 743.357C166.406 743.357 0 576.951 0 371.679C4.17888e-05 166.406 166.406 0 371.679 0C576.951 0 743.357 166.406 743.357 371.679C743.357 371.679 743.357 371.679 743.357 371.679Z" fill="none" stroke-width="3" stroke="url(#gradient_2)" stroke-linecap="round" stroke-linejoin="round" />
      </g>
    </g>
  </g>
</svg>